<svg width="30" height="30" viewBox="0 0 30 30" fill="none" xmlns="http://www.w3.org/2000/svg">
<g clip-path="url(#clip0_6_51)">
<path d="M8.8475 29.4375C8.25647 29.0435 7.73163 28.5583 7.2925 28C6.81375 27.4212 6.37 26.8125 5.9625 26.1825C5.00554 24.7827 4.25611 23.2519 3.7375 21.6375C3.1125 19.76 2.80875 17.9625 2.80875 16.2037C2.80875 14.2412 3.23375 12.5287 4.06125 11.0912C4.67829 9.96494 5.58439 9.02346 6.68625 8.36375C7.75391 7.70151 8.98013 7.33883 10.2362 7.31375C10.6737 7.31375 11.1487 7.37625 11.6487 7.50125C12.0112 7.60125 12.4487 7.76375 12.9862 7.96375C13.6737 8.22625 14.0487 8.38875 14.1737 8.42625C14.5737 8.57625 14.9112 8.63875 15.1737 8.63875C15.3737 8.63875 15.6612 8.57625 15.98 8.47625C16.1612 8.41375 16.505 8.30125 16.9925 8.08875C17.475 7.91375 17.8575 7.76375 18.1612 7.65125C18.6237 7.51375 19.0712 7.38875 19.4737 7.32625C19.9612 7.25125 20.445 7.22625 20.9087 7.26375C21.7962 7.32625 22.6087 7.51375 23.3337 7.78875C24.6087 8.30125 25.6375 9.10125 26.405 10.2387C26.08 10.4387 25.78 10.6712 25.4987 10.9262C24.89 11.4637 24.3737 12.1012 23.9612 12.8075C23.4252 13.7703 23.1478 14.8556 23.1562 15.9575C23.175 17.3112 23.5187 18.5012 24.2062 19.5325C24.7069 20.2973 25.3596 20.9508 26.1237 21.4525C26.5112 21.715 26.8512 21.8962 27.1737 22.015C27.0237 22.4837 26.8587 22.94 26.6675 23.39C26.2337 24.3987 25.7175 25.365 25.105 26.2775C24.565 27.065 24.14 27.6525 23.8175 28.04C23.315 28.64 22.83 29.09 22.3425 29.4112C21.805 29.7675 21.1737 29.9562 20.5275 29.9562C20.09 29.975 19.6525 29.9187 19.235 29.7975C18.8725 29.6787 18.515 29.545 18.165 29.3937C17.7983 29.226 17.4203 29.0839 17.0337 28.9687C16.5588 28.8445 16.0697 28.7828 15.5787 28.785C15.0787 28.785 14.5912 28.8475 14.1287 28.9662C13.7412 29.0762 13.3662 29.2112 12.995 29.3725C12.47 29.5912 12.1262 29.735 11.9262 29.7975C11.5233 29.9167 11.1082 29.9901 10.6887 30.0162C10.0387 30.0162 9.43375 29.8287 8.83125 29.4537L8.8475 29.4375ZM17.415 6.3625C16.565 6.7875 15.7575 6.9675 14.9487 6.9075C14.8237 6.1 14.9487 5.27 15.2862 4.36125C15.5862 3.58625 15.9862 2.88625 16.5362 2.26125C17.1112 1.61125 17.7987 1.07375 18.5737 0.686249C19.3987 0.261249 20.1862 0.0362488 20.9362 -0.00125122C21.0362 0.848749 20.9362 1.68625 20.6237 2.58625C20.3361 3.38572 19.9133 4.12986 19.3737 4.78625C18.83 5.43625 18.155 5.97375 17.3912 6.36125L17.415 6.3625Z" fill="black"/>
</g>
<defs>
<clipPath id="clip0_6_51">
<rect width="30" height="30" fill="white"/>
</clipPath>
</defs>
</svg>
