<svg width="30" height="30" viewBox="0 0 30 30" fill="none" xmlns="http://www.w3.org/2000/svg">
<g clip-path="url(#clip0_6_60)">
<path d="M29.299 15.2806C29.299 14.0516 29.1993 13.1547 28.9834 12.2245H14.9485V17.772H23.1867C23.0207 19.1507 22.1238 21.2268 20.1306 22.6219L20.1026 22.8077L24.5402 26.2454L24.8477 26.2761C27.6712 23.6684 29.299 19.8316 29.299 15.2806Z" fill="#4285F4"/>
<path d="M14.9485 29.8969C18.9845 29.8969 22.3728 28.5681 24.8477 26.2761L20.1306 22.6219C18.8683 23.5023 17.1741 24.1168 14.9485 24.1168C10.9955 24.1168 7.6404 21.5092 6.44441 17.905L6.2691 17.9198L1.65483 21.4909L1.59448 21.6586C4.05265 26.5418 9.10193 29.8969 14.9485 29.8969Z" fill="#34A853"/>
<path d="M6.44439 17.905C6.12882 16.9748 5.94618 15.9782 5.94618 14.9485C5.94618 13.9186 6.12882 12.9221 6.42779 11.992L6.41943 11.7939L1.74733 8.1655L1.59447 8.23821C0.581336 10.2646 0 12.5401 0 14.9485C0 17.3568 0.581336 19.6323 1.59447 21.6586L6.44439 17.905Z" fill="#FBBC05"/>
<path d="M14.9485 5.78004C17.7554 5.78004 19.6489 6.99252 20.7285 8.00576L24.9473 3.8866C22.3563 1.47824 18.9845 0 14.9485 0C9.10192 0 4.05265 3.35508 1.59448 8.23821L6.4278 11.992C7.6404 8.38775 10.9955 5.78004 14.9485 5.78004Z" fill="#EB4335"/>
</g>
<defs>
<clipPath id="clip0_6_60">
<rect width="30" height="30" fill="white"/>
</clipPath>
</defs>
</svg>
