<svg width="30" height="30" viewBox="0 0 30 30" fill="none" xmlns="http://www.w3.org/2000/svg">
<g clip-path="url(#clip0_6_44)">
<path d="M6.30952 18.9048C6.30952 20.6429 4.90476 22.0476 3.16666 22.0476C1.42857 22.0476 0.0238037 20.6429 0.0238037 18.9048C0.0238037 17.1667 1.42857 15.7619 3.16666 15.7619H6.30952V18.9048ZM7.88095 18.9048C7.88095 17.1667 9.28571 15.7619 11.0238 15.7619C12.7619 15.7619 14.1667 17.1667 14.1667 18.9048V26.7619C14.1667 28.5 12.7619 29.9048 11.0238 29.9048C9.28571 29.9048 7.88095 28.5 7.88095 26.7619V18.9048Z" fill="#E01E5A"/>
<path d="M11.0238 6.28571C9.28571 6.28571 7.88095 4.88095 7.88095 3.14286C7.88095 1.40476 9.28571 0 11.0238 0C12.7619 0 14.1667 1.40476 14.1667 3.14286V6.28571H11.0238ZM11.0238 7.88095C12.7619 7.88095 14.1667 9.28571 14.1667 11.0238C14.1667 12.7619 12.7619 14.1667 11.0238 14.1667H3.14286C1.40476 14.1667 0 12.7619 0 11.0238C0 9.28571 1.40476 7.88095 3.14286 7.88095H11.0238Z" fill="#36C5F0"/>
<path d="M23.619 11.0238C23.619 9.28571 25.0238 7.88095 26.7619 7.88095C28.5 7.88095 29.9048 9.28571 29.9048 11.0238C29.9048 12.7619 28.5 14.1667 26.7619 14.1667H23.619V11.0238ZM22.0476 11.0238C22.0476 12.7619 20.6429 14.1667 18.9048 14.1667C17.1667 14.1667 15.7619 12.7619 15.7619 11.0238V3.14286C15.7619 1.40476 17.1667 0 18.9048 0C20.6429 0 22.0476 1.40476 22.0476 3.14286V11.0238Z" fill="#2EB67D"/>
<path d="M18.9048 23.619C20.6429 23.619 22.0476 25.0238 22.0476 26.7619C22.0476 28.5 20.6429 29.9048 18.9048 29.9048C17.1667 29.9048 15.7619 28.5 15.7619 26.7619V23.619H18.9048ZM18.9048 22.0476C17.1667 22.0476 15.7619 20.6429 15.7619 18.9048C15.7619 17.1667 17.1667 15.7619 18.9048 15.7619H26.7857C28.5238 15.7619 29.9286 17.1667 29.9286 18.9048C29.9286 20.6429 28.5238 22.0476 26.7857 22.0476H18.9048Z" fill="#ECB22E"/>
</g>
<defs>
<clipPath id="clip0_6_44">
<rect width="30" height="30" fill="white"/>
</clipPath>
</defs>
</svg>
