<svg width="30" height="30" viewBox="0 0 30 30" fill="none" xmlns="http://www.w3.org/2000/svg">
<g clip-path="url(#clip0_1_6)">
<path d="M6.3025 18.9562C6.30085 19.7915 5.96857 20.5922 5.37829 21.1831C4.78802 21.7741 3.98777 22.1074 3.1525 22.11C2.3168 22.108 1.51591 21.7751 0.925094 21.184C0.334278 20.593 0.00165055 19.792 0 18.9562C0.00231183 18.1211 0.335271 17.3208 0.926051 16.7305C1.51683 16.1402 2.31734 15.8079 3.1525 15.8063H6.3025V18.9562ZM7.89125 18.9562C7.89356 18.1213 8.22635 17.3213 8.81686 16.731C9.40737 16.1407 10.2076 15.8082 11.0425 15.8063C11.8774 15.8082 12.6776 16.1407 13.2681 16.731C13.8587 17.3213 14.1914 18.1213 14.1937 18.9562V26.8475C14.1918 27.6828 13.8592 28.4833 13.2687 29.074C12.6781 29.6648 11.8778 29.9977 11.0425 30C10.2072 29.9977 9.40685 29.6648 8.81634 29.074C8.22583 28.4833 7.89323 27.6828 7.89125 26.8475V18.9562ZM11.0425 6.3025C10.2077 6.30019 9.40766 5.96762 8.81722 5.37741C8.22678 4.78721 7.89389 3.98734 7.89125 3.1525C7.89323 2.31723 8.22583 1.51672 8.81634 0.925974C9.40685 0.33523 10.2072 0.00231051 11.0425 0C11.8778 0.00231051 12.6781 0.33523 13.2687 0.925974C13.8592 1.51672 14.1918 2.31723 14.1937 3.1525V6.3025H11.0425ZM11.0425 7.89125C11.8776 7.89356 12.6777 8.22631 13.2682 8.81678C13.8587 9.40725 14.1914 10.2074 14.1937 11.0425C14.1914 11.8776 13.8587 12.6777 13.2682 13.2682C12.6777 13.8587 11.8776 14.1914 11.0425 14.1937H3.1525C2.31723 14.1918 1.51672 13.8592 0.925974 13.2687C0.33523 12.6781 0.00231051 11.8778 0 11.0425C0.00231051 10.2072 0.33523 9.40685 0.925974 8.81634C1.51672 8.22583 2.31723 7.89323 3.1525 7.89125H11.0425ZM23.695 11.0425C23.6973 10.2072 24.0302 9.40685 24.621 8.81634C25.2117 8.22583 26.0122 7.89323 26.8475 7.89125C27.6828 7.89323 28.4833 8.22583 29.074 8.81634C29.6648 9.40685 29.9977 10.2072 30 11.0425C29.9977 11.8778 29.6648 12.6781 29.074 13.2687C28.4833 13.8592 27.6828 14.1918 26.8475 14.1937H23.695V11.0425ZM22.11 11.0425C22.1077 11.878 21.7746 12.6786 21.1836 13.2691C20.5926 13.8596 19.7917 14.1921 18.9562 14.1937C18.1213 14.1914 17.3213 13.8587 16.731 13.2681C16.1407 12.6776 15.8082 11.8774 15.8063 11.0425V3.1525C15.8079 2.31734 16.1402 1.51683 16.7305 0.926051C17.3208 0.335271 18.1211 0.00231183 18.9562 0C19.792 0.00165055 20.593 0.334278 21.184 0.925094C21.7751 1.51591 22.108 2.3168 22.11 3.1525V11.0425ZM18.9562 23.695C19.792 23.6966 20.593 24.0293 21.184 24.6201C21.7751 25.2109 22.108 26.0118 22.11 26.8475C22.108 27.6832 21.7751 28.4841 21.184 29.0749C20.593 29.6657 19.792 29.9984 18.9562 30C18.1211 29.9977 17.3208 29.6647 16.7305 29.0739C16.1402 28.4832 15.8079 27.6827 15.8063 26.8475V23.695H18.9562ZM18.9562 22.11C18.1209 22.1077 17.3204 21.7746 16.7301 21.1835C16.1397 20.5925 15.8076 19.7916 15.8063 18.9562C15.8082 18.1214 16.1407 17.3214 16.7311 16.7311C17.3214 16.1407 18.1214 15.8082 18.9562 15.8063H26.8475C27.6827 15.8079 28.4832 16.1402 29.0739 16.7305C29.6647 17.3208 29.9977 18.1211 30 18.9562C29.9984 19.792 29.6657 20.593 29.0749 21.184C28.4841 21.7751 27.6832 22.108 26.8475 22.11H18.9562Z" fill="#9B948E"/>
</g>
<defs>
<clipPath id="clip0_1_6">
<rect width="30" height="30" fill="white"/>
</clipPath>
</defs>
</svg>
