<svg width="119" height="30" viewBox="0 0 119 30" fill="none" xmlns="http://www.w3.org/2000/svg">
<g clip-path="url(#clip0_10_85)">
<path fill-rule="evenodd" clip-rule="evenodd" d="M37.9292 23.6216L39.4088 20.1834C41.007 21.3785 43.1363 21.9997 45.2371 21.9997C46.7879 21.9997 47.7695 21.4022 47.7695 20.4964C47.7458 17.964 38.4793 19.9463 38.4082 13.5963C38.3845 10.3715 41.2488 7.88656 45.3083 7.88656C47.7221 7.88656 50.1312 8.48409 51.8527 9.84514L50.4679 13.3545C48.8935 12.3491 46.9349 11.633 45.0712 11.633C43.805 11.633 42.9703 12.2305 42.9703 12.9941C42.994 15.479 52.3317 14.118 52.4265 20.1834C52.4265 23.4794 49.6333 25.7984 45.6213 25.7984C42.681 25.7936 39.9826 25.1012 37.9292 23.6216ZM94.7471 18.9409C94.0073 20.2309 92.6225 21.1129 91.0196 21.1129C88.6532 21.1129 86.7468 19.2018 86.7468 16.8401C86.7468 14.4784 88.6579 12.5672 91.0196 12.5672C92.6178 12.5672 94.0073 13.4493 94.7471 14.7392L98.8302 12.4724C97.3032 9.7503 94.363 7.88656 91.0196 7.88656C86.0734 7.88656 82.0614 11.8986 82.0614 16.8448C82.0614 21.7911 86.0734 25.8031 91.0196 25.8031C94.3867 25.8031 97.3032 23.9631 98.8302 21.2173L94.7471 18.9409ZM54.4799 0.455322H59.5922V25.4616H54.4799V0.455322ZM100.836 0.455322V25.4616H105.948V17.9593L112.014 25.4616H118.558L110.843 16.5508L117.985 8.23749H111.725L105.944 15.1376V0.455322H100.836Z" fill="black"/>
<path d="M74.782 18.9883C74.0422 20.207 72.5152 21.1128 70.7937 21.1128C68.4273 21.1128 66.5208 19.2017 66.5208 16.84C66.5208 14.4783 68.432 12.5671 70.7937 12.5671C72.5152 12.5671 74.0422 13.5203 74.782 14.7628V18.9883ZM74.782 8.24213V10.2719C73.9473 8.86338 71.8702 7.88171 69.6935 7.88171C65.2025 7.88171 61.6694 11.8463 61.6694 16.8163C61.6694 21.7862 65.2025 25.7982 69.6935 25.7982C71.8654 25.7982 73.9426 24.8213 74.782 23.4081V25.4378H79.8942V8.24213H74.782Z" fill="black"/>
<path fill-rule="evenodd" clip-rule="evenodd" d="M6.33123 18.9646C6.33123 20.7097 4.92276 22.1182 3.17758 22.1182C1.4324 22.1182 0.0239258 20.705 0.0239258 18.9646C0.0239258 17.2241 1.4324 15.8109 3.17758 15.8109H6.33123V18.9646ZM7.90568 18.9646C7.90568 17.2194 9.31416 15.8109 11.0593 15.8109C12.8045 15.8109 14.213 17.2194 14.213 18.9646V26.8463C14.213 28.5915 12.8045 30 11.0593 30C9.31416 30 7.90568 28.5915 7.90568 26.8463V18.9646Z" fill="#E01E5A"/>
<path fill-rule="evenodd" clip-rule="evenodd" d="M11.0591 6.3073C9.31394 6.3073 7.90547 4.89883 7.90547 3.15365C7.90547 1.40847 9.31394 0 11.0591 0C12.8043 0 14.2128 1.40847 14.2128 3.15365V6.3073H11.0591ZM11.0591 7.90547C12.8043 7.90547 14.2128 9.31394 14.2128 11.0591C14.2128 12.8043 12.8043 14.2128 11.0591 14.2128H3.15365C1.40847 14.2128 0 12.7996 0 11.0591C0 9.31869 1.40847 7.90547 3.15365 7.90547H11.0591Z" fill="#36C5F0"/>
<path fill-rule="evenodd" clip-rule="evenodd" d="M23.6928 11.0591C23.6928 9.31394 25.1013 7.90547 26.8464 7.90547C28.5916 7.90547 30.0001 9.31394 30.0001 11.0591C30.0001 12.8043 28.5916 14.2128 26.8464 14.2128H23.6928V11.0591ZM22.1183 11.0591C22.1183 12.8043 20.7099 14.2128 18.9647 14.2128C17.2195 14.2128 15.811 12.8043 15.811 11.0591V3.15365C15.811 1.40847 17.2195 0 18.9647 0C20.7099 0 22.1183 1.40847 22.1183 3.15365V11.0591Z" fill="#2EB67D"/>
<path fill-rule="evenodd" clip-rule="evenodd" d="M18.9647 23.6927C20.7099 23.6927 22.1183 25.1011 22.1183 26.8463C22.1183 28.5915 20.7099 30 18.9647 30C17.2195 30 15.811 28.5915 15.811 26.8463V23.6927H18.9647ZM18.9647 22.1182C17.2195 22.1182 15.811 20.7097 15.811 18.9646C15.811 17.2194 17.2195 15.8109 18.9647 15.8109H26.8702C28.6153 15.8109 30.0238 17.2194 30.0238 18.9646C30.0238 20.7097 28.6153 22.1182 26.8702 22.1182H18.9647Z" fill="#ECB22E"/>
</g>
<defs>
<clipPath id="clip0_10_85">
<rect width="118.558" height="30" fill="white"/>
</clipPath>
</defs>
</svg>
